<?xml version="1.0" encoding="UTF-8"?>
<svg xmlns="http://www.w3.org/2000/svg" version="1.1" viewBox="0 0 512 512">
  <!-- Generator: Adobe Illustrator 29.2.1, SVG Export Plug-In . SVG Version: 2.1.0 Build 116)  -->
  <defs>
    <style>
      .st0 {
        fill: #231f20;
      }

      .st1, .st2 {
        fill: none;
        stroke: #231f20;
        stroke-miterlimit: 10;
      }

      .st3 {
        opacity: .5;
      }

      .st4 {
        display: none;
      }

      .st2 {
        stroke-width: 24px;
      }
    </style>
  </defs>
  <g id="Layer_1" class="st4">
    <polygon class="st1" points="324.82 -4.1 307.56 20 307.56 194.99 354.38 194.61 353.09 -4.1 324.82 -4.1"/>
    <polygon class="st1" points="103.29 222.45 118.66 196.52 114.38 196.55 122.77 -4.1 324.82 -4.1 385.35 -88.61 59.54 -87.32 96.32 314.94 126.56 272.71 126.56 222.99 103.29 222.45"/>
    <polygon class="st1" points="126.56 196.45 126.56 183.18 118.66 196.52 126.56 196.45"/>
    <polygon class="st1" points="181.12 196.53 181.35 196.45 256 196.45 154.31 287.66 307.56 287.66 307.56 194.99 181.5 196.01 181.12 196.53"/>
    <polygon class="st1" points="161.58 223.81 126.56 272.71 126.56 287.66 134.64 287.66 178.13 224.19 161.58 223.81"/>
    <polygon class="st1" points="180.54 196.72 181.05 196.01 126.56 196.45 126.56 214.7 180.54 196.72"/>
    <polygon class="st1" points="253.07 96.08 181.05 196.01 181.5 196.01 253.07 96.08"/>
    <polygon class="st1" points="126.56 18.66 126.56 183.18 194.26 68.9 253.07 96.07 307.56 20 307.56 18.66 126.56 18.66"/>
    <polygon class="st1" points="103.29 333.42 154.31 287.66 134.64 287.66 103.29 333.42"/>
    <polygon class="st1" points="126.56 214.7 103.29 222.45 126.56 222.45 126.56 214.7"/>
    <polygon class="st1" points="162 222.45 126.56 222.45 126.56 222.99 161.58 223.81 181.12 196.53 180.54 196.72 162 222.45"/>
  </g>
  <g id="Layer_2">
    <g class="st3">
      <path class="st0" d="M238.5,52.51c4.87-6.66,15.6-12.09,23.85-12.06l127.89.41c8.25.03,10.6,5.16,5.21,11.41l-120.06,139.4c-5.38,6.25-3.04,11.55,5.21,11.78l131.11,3.58c8.25.23,9.78,4.7,3.41,9.94L117.21,462.08c-6.37,5.24-8.06,3.78-3.74-3.26l115.85-188.97c4.31-7.03,1.09-12.9-7.16-13.04l-116.25-1.98c-8.25-.14-11.02-5.71-6.15-12.37L238.5,52.51Z"/>
      <path class="st2" d="M238.5,52.51c4.87-6.66,15.6-12.09,23.85-12.06l127.89.41c8.25.03,10.6,5.16,5.21,11.41l-120.06,139.4c-5.38,6.25-3.04,11.55,5.21,11.78l131.11,3.58c8.25.23,9.78,4.7,3.41,9.94L117.21,462.08c-6.37,5.24-8.06,3.78-3.74-3.26l115.85-188.97c4.31-7.03,1.09-12.9-7.16-13.04l-116.25-1.98c-8.25-.14-11.02-5.71-6.15-12.37L238.5,52.51Z"/>
    </g>
    <path class="st2" d="M238.5,52.51c4.87-6.66,15.6-12.09,23.85-12.06l127.89.41c8.25.03,10.6,5.16,5.21,11.41l-120.06,139.4c-5.38,6.25-3.04,11.55,5.21,11.78l131.11,3.58c8.25.23,9.78,4.7,3.41,9.94L117.21,462.08c-6.37,5.24-8.06,3.78-3.74-3.26l115.85-188.97c4.31-7.03,1.09-12.9-7.16-13.04l-116.25-1.98c-8.25-.14-11.02-5.71-6.15-12.37L238.5,52.51Z"/>
  </g>
</svg>