<?xml version="1.0" encoding="UTF-8" standalone="no"?>
<!-- Created with Inkscape (http://www.inkscape.org/) -->

<svg
   version="1.1"
   id="svg861"
   xml:space="preserve"
   width="682.66669"
   height="682.66669"
   viewBox="0 0 682.66669 682.66669"
   xmlns="http://www.w3.org/2000/svg"
   xmlns:svg="http://www.w3.org/2000/svg"><defs
     id="defs865"><clipPath
       clipPathUnits="userSpaceOnUse"
       id="clipPath875"><path
         d="M 0,512 H 512 V 0 H 0 Z"
         id="path873" /></clipPath></defs><g
     id="g867"
     transform="matrix(1.3333333,0,0,-1.3333333,0,682.66667)"><g
       id="g869"><g
         id="g871"
         clip-path="url(#clipPath875)"><g
           id="g877"
           transform="translate(84.6084,379.0576)"><path
             d="m 0,0 c 16.341,-8.702 25.828,-16.242 34.098,-29.678 19.711,-31.973 37.779,-32.54 58.906,-45.721 l 65.591,-40.902 c 11.526,-7.172 21.098,-10.233 27.471,1.757 6.372,11.99 0.481,36.906 -13.085,50.965 l -36.306,37.7 c -8.355,9.836 -2.691,15.986 11.158,18.311 37.1,6.208 45.681,-9.893 62.164,-38.21 m 70.206,-20.409 -39.62,69.9 C 218.266,45.154 177.824,43.284 135.967,48.272 89.719,53.8 86.179,59.525 43.642,82.145"
             style="fill:none;stroke:#000000;stroke-width:20.176;stroke-linecap:round;stroke-linejoin:round;stroke-miterlimit:10;stroke-dasharray:none;stroke-opacity:1"
             id="path879" /></g><g
           id="g881"
           transform="translate(26.5229,379.9932)"><path
             d="m 0,0 32.285,-17.206 c 7.363,-3.911 16.568,-1.077 20.476,6.265 l 49.674,93.511 c 3.908,7.342 1.105,16.582 -6.259,20.466 l -32.285,17.205 c -7.363,3.912 -16.568,1.106 -20.476,-6.264 L -6.259,20.465 C -10.167,13.124 -7.363,3.912 0,0 Z"
             style="fill:none;stroke:#000000;stroke-width:20.176;stroke-linecap:round;stroke-linejoin:round;stroke-miterlimit:10;stroke-dasharray:none;stroke-opacity:1"
             id="path883" /></g><g
           id="g885"
           transform="translate(145.4409,218.8208)"><path
             d="m 0,0 h 348.059 v -187.307 c 0,-11.819 -9.685,-21.514 -21.495,-21.514 H 21.495 C 9.686,-208.821 0,-199.126 0,-187.307 Z"
             style="fill:none;stroke:#000000;stroke-width:20.176;stroke-linecap:round;stroke-linejoin:round;stroke-miterlimit:10;stroke-dasharray:none;stroke-opacity:1"
             id="path887" /></g><g
           id="g889"
           transform="translate(271.1274,218.8208)"><path
             d="M 0,0 C -12.518,10.601 -20.419,25.284 -22.77,40.959 M -9.431,91.754 C 10.082,116.84 45.313,125.032 74.313,109.612 106.74,92.321 119.059,52.014 101.812,19.53 97.734,11.849 92.353,5.301 86.123,0"
             style="fill:none;stroke:#000000;stroke-width:20.176;stroke-linecap:round;stroke-linejoin:round;stroke-miterlimit:10;stroke-dasharray:none;stroke-opacity:1"
             id="path891" /></g><g
           id="g893"
           transform="translate(299.2495,159.5508)"><path
             d="m 0,0 h 194.25 m -348.059,0 h 64.09"
             style="fill:none;stroke:#000000;stroke-width:20.176;stroke-linecap:round;stroke-linejoin:round;stroke-miterlimit:10;stroke-dasharray:none;stroke-opacity:1"
             id="path895" /></g><path
           d="m 224.002,59.292 h 190.937 v 50.994 H 224.002 Z"
           style="fill:none;stroke:#000000;stroke-width:20.176;stroke-linecap:round;stroke-linejoin:round;stroke-miterlimit:10;stroke-dasharray:none;stroke-opacity:1"
           id="path897" /><g
           id="g899"
           transform="translate(254.4463,159.5508)"><path
             d="M 0,0 H -0.057"
             style="fill:none;stroke:#000000;stroke-width:20.176;stroke-linecap:round;stroke-linejoin:round;stroke-miterlimit:10;stroke-dasharray:none;stroke-opacity:1"
             id="path901" /></g></g></g></g></svg>
