<svg height="309pt" viewBox="-10 0 309 309.33333" width="309pt" xmlns="http://www.w3.org/2000/svg"><path d="m74.832031 138.667969h-21.332031v-90.667969c0-20.535156 16.800781-37.332031 37.332031-37.332031 20.535157 0 37.335938 16.796875 37.335938 37.332031h-21.335938c0-8.800781-7.199219-16-16-16-8.796875 0-16 7.199219-16 16zm0 0"/><path d="m181.5 85.332031h-21.332031v-48c0-8.796875-7.203125-16-16-16-8.800781 0-16 7.203125-16 16v48h-21.335938v-48c0-20.53125 16.800781-37.332031 37.335938-37.332031 20.53125 0 37.332031 16.800781 37.332031 37.332031zm0 0"/><path d="m144.167969 309.332031c-79.46875 0-144-64.53125-144-144v-46.664062c0-21.066407 15.730469-39.203125 36.53125-42.269531l25.867187-3.730469 3.066406 21.066406-25.867187 3.730469c-10.398437 1.46875-18.265625 10.535156-18.265625 21.070312v46.664063c0 67.601562 55.066406 122.667969 122.667969 122.667969 67.597656 0 122.664062-55.066407 122.664062-122.667969v-96c0-8.800781-7.199219-16-16-16-8.796875 0-16 7.199219-16 16h-21.332031c0-20.53125 16.800781-37.332031 37.332031-37.332031 20.535157 0 37.335938 16.800781 37.335938 37.332031v96c0 79.601562-64.535157 144.132812-144 144.132812zm0 0"/><path d="m234.832031 85.332031h-21.332031v-37.332031c0-8.800781-7.199219-16-16-16s-16 7.199219-16 16h-21.332031c0-20.535156 16.796875-37.332031 37.332031-37.332031s37.332031 16.796875 37.332031 37.332031zm0 0"/></svg>