<?xml version="1.0" encoding="UTF-8"?>
<svg id="Capa_1" xmlns="http://www.w3.org/2000/svg" version="1.1" viewBox="0 0 418.03 418.03">
  <!-- Generator: Adobe Illustrator 29.5.1, SVG Export Plug-In . SVG Version: 2.1.0 Build 141)  -->
  <path d="M275.4,228.09l38.05,7.55c1.34,21.38,19.76,37.63,41.14,36.3,21.38-1.34,37.63-19.76,36.3-41.14s-19.76-37.63-41.14-36.3c-13.86.87-26.2,9.08-32.36,21.53l-39.38-7.82c-.43-14.92-6.2-29.18-16.26-40.2l53.08-74.99c24.58,10.66,53.15-.62,63.81-25.2s-.62-53.15-25.2-63.81-53.15.62-63.81,25.2c-7.65,17.64-4.16,38.13,8.89,52.24l-52.45,74.1c-25.1-14.08-56.57-9.16-76.16,11.92l-68.74-53.38c9.08-19.46.66-42.59-18.8-51.66-19.46-9.08-42.59-.66-51.66,18.8-9.08,19.46-.66,42.59,18.8,51.66,12.62,5.89,27.43,4.57,38.82-3.45l70.42,54.69c-11.31,24.71-5.32,53.9,14.81,72.15l-42.18,59.65c-24.9-13.88-56.34-4.95-70.23,19.95-13.88,24.9-4.95,56.34,19.95,70.23,24.9,13.88,56.34,4.95,70.23-19.95,10.18-18.26,8.34-40.85-4.65-57.23l43.65-61.73c15.21,6.75,32.49,7.13,47.98,1.05l52.18,77.08c-15.96,18.17-14.16,45.84,4.01,61.8,18.17,15.96,45.84,14.16,61.8-4.01,15.96-18.17,14.16-45.84-4.01-61.8-12.5-10.97-30.13-13.92-45.51-7.61l-51.22-75.66c9.41-7.84,16.31-18.25,19.86-29.97ZM352.16,214.43c10.37,0,18.78,8.41,18.78,18.78s-8.41,18.78-18.78,18.78-18.78-8.41-18.78-18.78c0-10.37,8.41-18.78,18.78-18.78ZM334.01,20.24c15.67,0,28.38,12.71,28.38,28.38s-12.71,28.38-28.38,28.38c-15.67,0-28.38-12.71-28.38-28.38.02-15.67,12.71-28.36,28.38-28.38ZM66.01,116.54c-10.37-.01-18.77-8.42-18.78-18.78,0-10.37,8.41-18.78,18.78-18.78s18.78,8.41,18.78,18.78-8.41,18.78-18.78,18.78ZM106.36,392.4c-17.39,0-31.48-14.1-31.48-31.48s14.1-31.48,31.48-31.48c17.39,0,31.48,14.1,31.48,31.48-.02,17.38-14.1,31.46-31.48,31.48ZM323.37,350.45c13.17.02,23.85,10.69,23.86,23.86,0,13.18-10.68,23.86-23.86,23.86s-23.86-10.68-23.86-23.86c0-13.18,10.69-23.86,23.86-23.86ZM215.57,252.56c-23.46-.03-42.46-19.03-42.49-42.49h0c0-23.47,19.02-42.49,42.49-42.49s42.49,19.02,42.49,42.49-19.02,42.49-42.49,42.49Z"/>
</svg>