<?xml version="1.0" encoding="UTF-8"?>
<svg id="Capa_1" xmlns="http://www.w3.org/2000/svg" version="1.1" viewBox="0 0 512 512">
  <!-- Generator: Adobe Illustrator 29.5.1, SVG Export Plug-In . SVG Version: 2.1.0 Build 141)  -->
  <path d="M437.33,405.32h-170.67c-5.89,0-10.67,4.78-10.67,10.67s4.78,10.67,10.67,10.67h170.67c5.89,0,10.67-4.78,10.67-10.67s-4.78-10.67-10.67-10.67Z"/>
  <path d="M437.33,447.99h-170.67c-5.89,0-10.67,4.78-10.67,10.67s4.78,10.67,10.67,10.67h170.67c5.89,0,10.67-4.78,10.67-10.67,0-5.89-4.78-10.67-10.67-10.67Z"/>
  <path d="M437.33,191.99h-170.67c-5.89,0-10.67,4.78-10.67,10.67s4.78,10.67,10.67,10.67h170.67c5.89,0,10.67-4.78,10.67-10.67s-4.78-10.67-10.67-10.67Z"/>
  <path d="M53.33,516.99c-32.17,0-58.33-26.17-58.33-58.33v-42.67c0-16.36,6.8-31.6,18.84-42.66-12.05-11.05-18.84-26.29-18.84-42.67v-42.67c0-16.36,6.8-31.6,18.84-42.66-12.05-11.05-18.84-26.29-18.84-42.67v-42.67c0-10.62,3.02-21.13,8.75-30.43.12-.31.28-.66.51-1.03L70.21,22.52c10.71-17.23,29.23-27.51,49.54-27.51h272.58c20.3,0,38.82,10.28,49.54,27.51l65.96,106.03c.34.56.54,1.06.65,1.43,5.58,9.23,8.53,19.6,8.53,30.02v42.67c0,16.38-6.79,31.62-18.84,42.67,12.04,11.05,18.84,26.29,18.84,42.67v42.67c0,16.38-6.79,31.62-18.84,42.67,12.04,11.05,18.84,26.29,18.84,42.67v42.67c0,32.17-26.17,58.33-58.33,58.33H53.33ZM53.33,388.99c-14.89,0-27,12.11-27,27v42.67c0,14.89,12.11,27,27,27h405.33c14.89,0,27-12.11,27-27v-42.67c0-14.89-12.11-27-27-27H53.33ZM53.33,260.99c-14.89,0-27,12.11-27,27v42.67c0,14.89,12.11,27,27,27h405.33c14.89,0,27-12.11,27-27v-42.67c0-7.2-2.81-13.97-7.92-19.08-5.11-5.11-11.88-7.92-19.08-7.92H53.33ZM53.33,132.99c-14.89,0-27,12.11-27,27v42.67c0,14.89,12.11,27,27,27h405.33c14.89,0,27-12.11,27-27v-42.67c0-14.89-12.11-27-27-27H53.33ZM454.16,101.66l-38.95-62.59c-4.96-7.98-13.52-12.75-22.91-12.75H119.72c-9.39,0-17.96,4.76-22.91,12.74l-38.95,62.59h396.3Z"/>
  <path d="M512,202.66v-42.67c0-10.24-3.05-19.73-8.08-27.88-.15-.3-.17-.64-.34-.92l-65.96-106.03C427.82,9.42,410.88.01,392.32.01H119.74C101.16.01,84.25,9.42,74.45,25.16L8.49,131.19c-.11.17-.11.36-.21.55-5.16,8.21-8.28,17.86-8.28,28.25v42.67c0,17.49,8.6,32.94,21.67,42.67-13.08,9.75-21.67,25.17-21.67,42.67v42.67c0,17.49,8.6,32.94,21.67,42.67-13.08,9.75-21.67,25.17-21.67,42.67v42.67c0,29.4,23.94,53.33,53.33,53.33h405.33c29.4,0,53.33-23.94,53.33-53.33v-42.67c0-17.49-8.6-32.94-21.67-42.67,13.08-9.73,21.68-25.17,21.68-42.67v-42.67c0-17.49-8.6-32.94-21.67-42.67,13.08-9.73,21.67-25.15,21.67-42.67ZM92.57,36.43c5.87-9.45,16.02-15.1,27.16-15.1h272.58c11.14,0,21.29,5.65,27.16,15.1l44.01,70.72c-1.6-.15-3.16-.49-4.8-.49H53.33c-1.64,0-3.18.34-4.78.49l44.01-70.72ZM490.67,415.99v42.67c0,17.64-14.36,32-32,32H53.33c-17.64,0-32-14.36-32-32v-42.67c0-17.64,14.36-32,32-32h405.33c17.64,0,32,14.36,32,32ZM490.67,287.99v42.67c0,17.64-14.36,32-32,32H53.33c-17.64,0-32-14.36-32-32v-42.67c0-17.64,14.36-32,32-32h405.33c17.64,0,32,14.36,32,32ZM490.67,202.66c0,17.64-14.36,32-32,32H53.33c-17.64,0-32-14.36-32-32v-42.67c0-17.64,14.36-32,32-32h405.33c17.64,0,32,14.36,32,32v42.67h0Z"/>
  <path d="M437.33,149.32h-170.67c-5.89,0-10.67,4.78-10.67,10.67s4.78,10.67,10.67,10.67h170.67c5.89,0,10.67-4.78,10.67-10.67s-4.78-10.67-10.67-10.67Z"/>
  <path d="M437.33,319.99h-170.67c-5.89,0-10.67,4.78-10.67,10.67s4.78,10.67,10.67,10.67h170.67c5.89,0,10.67-4.78,10.67-10.67s-4.78-10.67-10.67-10.67Z"/>
  <path d="M437.33,277.32h-170.67c-5.89,0-10.67,4.78-10.67,10.67s4.78,10.67,10.67,10.67h170.67c5.89,0,10.67-4.78,10.67-10.67s-4.78-10.67-10.67-10.67Z"/>
</svg>