<?xml version="1.0" encoding="iso-8859-1"?>
<!-- Generator: Adobe Illustrator 19.0.0, SVG Export Plug-In . SVG Version: 6.00 Build 0)  -->
<svg version="1.1" id="Capa_1" xmlns="http://www.w3.org/2000/svg" xmlns:xlink="http://www.w3.org/1999/xlink" x="0px" y="0px"
	 viewBox="0 0 512.001 512.001" style="enable-background:new 0 0 512.001 512.001;" xml:space="preserve">
<g>
	<g>
		<path d="M433.576,177.594c-47.721-19.398-110.784-30.082-177.575-30.082s-129.855,10.684-177.576,30.082
			C27.852,198.152,0,226.535,0,257.512s27.852,59.36,78.425,79.918c47.721,19.398,110.785,30.082,177.576,30.082
			s129.854-10.684,177.575-30.082c50.573-20.558,78.425-48.941,78.425-79.918S484.149,198.152,433.576,177.594z M426.045,318.902
			c-45.385,18.449-105.774,28.609-170.044,28.609s-124.659-10.16-170.045-28.609C44.04,301.863,20,279.488,20,257.512
			s24.04-44.352,65.956-61.391c45.386-18.449,105.775-28.609,170.045-28.609s124.659,10.16,170.044,28.609
			c41.916,17.039,65.956,39.415,65.956,61.391S467.961,301.863,426.045,318.902z"/>
	</g>
</g>
<g>
	<g>
		<path d="M387.369,203.264c-35.321-10.447-81.976-16.201-131.368-16.201c-49.394,0-96.048,5.754-131.368,16.201
			c-39.611,11.717-60.549,28.18-60.549,47.609s20.938,35.892,60.549,47.607c35.321,10.448,81.976,16.202,131.368,16.202
			c49.392,0,96.047-5.754,131.368-16.202c39.61-11.716,60.548-28.179,60.548-47.607C447.917,231.444,426.979,214.98,387.369,203.264
			z M381.695,279.301c-33.53,9.919-78.169,15.381-125.694,15.381c-47.525,0-92.165-5.462-125.695-15.381
			c-31.93-9.444-46.222-21.083-46.222-28.429c0-7.346,14.292-18.986,46.222-28.431c33.529-9.918,78.169-15.38,125.695-15.38
			c47.525,0,92.165,5.462,125.694,15.38c31.93,9.444,46.222,21.085,46.222,28.431C427.917,258.218,413.625,269.858,381.695,279.301z
			"/>
	</g>
</g>
<g>
	<g>
		<path d="M128.841,114.553l-18.498-32.043c-2.76-4.781-8.874-6.422-13.66-3.66c-4.783,2.761-6.422,8.877-3.66,13.66l18.498,32.043
			c1.852,3.208,5.213,5.002,8.67,5.002c1.696,0,3.415-0.433,4.99-1.342C129.964,125.453,131.603,119.337,128.841,114.553z"/>
	</g>
</g>
<g>
	<g>
		<path d="M415.319,78.85c-4.785-2.762-10.9-1.122-13.66,3.66l-18.5,32.043c-2.762,4.783-1.123,10.899,3.66,13.66
			c1.575,0.909,3.294,1.342,4.99,1.342c3.456,0,6.818-1.794,8.67-5.002l18.5-32.043C421.741,87.728,420.102,81.613,415.319,78.85z"
			/>
	</g>
</g>
<g>
	<g>
		<path d="M256.001,63.475c-5.523,0-10,4.478-10,10v31.034c0,5.523,4.478,10,10,10c5.522,0,10-4.477,10-10V73.475
			C266.001,67.954,261.523,63.475,256.001,63.475z"/>
	</g>
</g>
<g>
	<g>
		<path d="M256.001,34.475c-5.523,0-10,4.477-10,10v0.27c0,5.522,4.478,10,10,10c5.522,0,10-4.478,10-10v-0.27
			C266.001,38.953,261.523,34.475,256.001,34.475z"/>
	</g>
</g>
<g>
	<g>
		<path d="M125.182,383.79c-4.785-2.761-10.9-1.122-13.66,3.66l-18.499,32.042c-2.762,4.783-1.123,10.899,3.66,13.66
			c1.575,0.909,3.294,1.342,4.99,1.342c3.456,0,6.818-1.794,8.67-5.002l18.499-32.042
			C131.604,392.666,129.965,386.55,125.182,383.79z"/>
	</g>
</g>
<g>
	<g>
		<path d="M418.979,419.491l-18.5-32.042c-2.762-4.782-8.876-6.421-13.66-3.66c-4.783,2.762-6.422,8.877-3.66,13.66l18.5,32.042
			c1.852,3.208,5.213,5.002,8.67,5.002c1.696,0,3.416-0.433,4.99-1.342C420.102,430.389,421.741,424.275,418.979,419.491z"/>
	</g>
</g>
<g>
	<g>
		<path d="M256.001,457.257c-5.523,0-10,4.478-10,10v0.268c0,5.522,4.477,10,10,10c5.522,0,10-4.478,10-10v-0.268
			C266.001,461.736,261.523,457.257,256.001,457.257z"/>
	</g>
</g>
<g>
	<g>
		<path d="M256.001,397.493c-5.523,0-10,4.477-10,10v31.035c0,5.522,4.477,10,10,10c5.522,0,10-4.478,10-10v-31.035
			C266.001,401.97,261.523,397.493,256.001,397.493z"/>
	</g>
</g>
<g>
</g>
<g>
</g>
<g>
</g>
<g>
</g>
<g>
</g>
<g>
</g>
<g>
</g>
<g>
</g>
<g>
</g>
<g>
</g>
<g>
</g>
<g>
</g>
<g>
</g>
<g>
</g>
<g>
</g>
</svg>
